<?xml version="1.0" encoding="UTF-8" standalone="no"?>
<!DOCTYPE svg PUBLIC "-//W3C//DTD SVG 1.1//EN" "http://www.w3.org/Graphics/SVG/1.1/DTD/svg11.dtd">
<svg width="100%" height="100%" viewBox="0 0 3333 621" version="1.1" xmlns="http://www.w3.org/2000/svg" xmlns:xlink="http://www.w3.org/1999/xlink" xml:space="preserve" xmlns:serif="http://www.serif.com/" style="fill-rule:evenodd;clip-rule:evenodd;stroke-linejoin:round;stroke-miterlimit:2;">
    <g transform="matrix(1,0,0,1,0,-655.612)">
        <g id="Icon---Doc" serif:id="Icon + Doc" transform="matrix(2.60386,0,0,0.776185,0,655.612)">
            <rect x="0" y="0" width="1280" height="800" style="fill:none;"/>
            <g transform="matrix(0.474082,0,0,1.85576,-4.52521,13.888)">
                <path d="M508.929,104.137C508.929,46.662 454.481,0 387.417,0L144.392,0C77.328,0 22.88,46.662 22.88,104.137L22.88,312.41C22.88,369.884 77.328,416.546 144.392,416.546L387.417,416.546C454.481,416.546 508.929,369.884 508.929,312.41L508.929,104.137Z" style="fill:rgb(0,93,104);"/>
            </g>
            <g transform="matrix(0.180021,0,0,0.966264,-2.90892,13.888)">
                <clipPath id="_clip1">
                    <rect x="545.232" y="261.76" width="292.088" height="276.481"/>
                </clipPath>
                <g clip-path="url(#_clip1)">
                    <g transform="matrix(1.53142,-0.925775,1.48124,0.957138,72.3143,402.199)">
                        <rect x="113.67" y="103.648" width="145.188" height="145.188" style="fill:rgb(220,255,239);"/>
                    </g>
                    <g transform="matrix(1.53142,-0.925775,1.48124,0.957138,-73.7297,402.199)">
                        <rect x="113.67" y="103.648" width="145.188" height="145.188" style="fill:rgb(0,93,104);"/>
                    </g>
                </g>
            </g>
            <g transform="matrix(0.41333,0,0,1.38659,10.7082,-1232.8)">
                <g transform="matrix(286.339,0,0,286.339,668.121,1114.17)">
                    <path d="M0.384,-0.366L0.252,-0.366L0.252,-0.204C0.252,-0.191 0.253,-0.179 0.254,-0.168C0.255,-0.157 0.258,-0.147 0.263,-0.139C0.268,-0.131 0.275,-0.125 0.285,-0.121C0.294,-0.116 0.307,-0.114 0.323,-0.114C0.331,-0.114 0.341,-0.115 0.355,-0.117C0.368,-0.118 0.377,-0.122 0.384,-0.128L0.384,-0.003C0.367,0.003 0.35,0.007 0.332,0.009C0.314,0.011 0.296,0.012 0.279,0.012C0.254,0.012 0.23,0.009 0.209,0.004C0.188,-0.001 0.169,-0.01 0.153,-0.022C0.137,-0.033 0.125,-0.048 0.116,-0.067C0.107,-0.086 0.102,-0.108 0.102,-0.135L0.102,-0.366L0.006,-0.366L0.006,-0.486L0.102,-0.486L0.102,-0.63L0.252,-0.63L0.252,-0.486L0.384,-0.486L0.384,-0.366Z" style="fill-rule:nonzero;"/>
                </g>
                <g transform="matrix(286.339,0,0,286.339,784.661,1114.17)">
                    <path d="M0.053,-0.486L0.197,-0.486L0.197,-0.42L0.199,-0.42C0.204,-0.429 0.21,-0.439 0.219,-0.448C0.228,-0.457 0.238,-0.466 0.25,-0.473C0.262,-0.48 0.276,-0.486 0.291,-0.491C0.306,-0.496 0.323,-0.498 0.341,-0.498C0.379,-0.498 0.41,-0.492 0.433,-0.481C0.456,-0.469 0.474,-0.453 0.488,-0.432C0.501,-0.411 0.509,-0.387 0.514,-0.359C0.519,-0.331 0.521,-0.301 0.521,-0.268L0.521,0L0.371,0L0.371,-0.238C0.371,-0.252 0.371,-0.267 0.37,-0.282C0.369,-0.297 0.366,-0.31 0.361,-0.323C0.356,-0.336 0.348,-0.346 0.338,-0.354C0.327,-0.362 0.312,-0.366 0.293,-0.366C0.274,-0.366 0.258,-0.363 0.246,-0.356C0.234,-0.349 0.225,-0.339 0.219,-0.328C0.212,-0.316 0.208,-0.303 0.206,-0.288C0.204,-0.273 0.203,-0.258 0.203,-0.242L0.203,0L0.053,0L0.053,-0.486Z" style="fill-rule:nonzero;"/>
                </g>
                <g transform="matrix(286.339,0,0,286.339,949.019,1114.17)">
                    <path d="M0.333,0.079C0.323,0.105 0.313,0.128 0.304,0.148C0.295,0.168 0.283,0.185 0.269,0.199C0.254,0.212 0.236,0.223 0.214,0.23C0.192,0.237 0.163,0.24 0.127,0.24C0.088,0.24 0.051,0.234 0.015,0.222L0.035,0.099C0.058,0.109 0.081,0.114 0.105,0.114C0.122,0.114 0.135,0.112 0.146,0.109C0.157,0.105 0.166,0.099 0.173,0.093C0.18,0.086 0.185,0.077 0.19,0.067C0.195,0.057 0.2,0.045 0.205,0.032L0.216,0.004L0.003,-0.486L0.165,-0.486L0.29,-0.165L0.292,-0.165L0.399,-0.486L0.553,-0.486L0.333,0.079Z" style="fill-rule:nonzero;"/>
                </g>
                <g transform="matrix(286.339,0,0,286.339,1108.22,1114.17)">
                    <path d="M0.067,-0.756L0.217,-0.756L0.217,-0.434L0.219,-0.434C0.236,-0.457 0.259,-0.474 0.286,-0.484C0.313,-0.493 0.342,-0.498 0.373,-0.498C0.408,-0.498 0.439,-0.491 0.466,-0.477C0.493,-0.462 0.517,-0.443 0.536,-0.419C0.555,-0.395 0.569,-0.368 0.58,-0.337C0.59,-0.306 0.595,-0.273 0.595,-0.239C0.595,-0.202 0.589,-0.169 0.578,-0.138C0.567,-0.107 0.551,-0.081 0.53,-0.059C0.509,-0.036 0.483,-0.019 0.454,-0.007C0.425,0.006 0.392,0.012 0.356,0.012C0.339,0.012 0.322,0.01 0.307,0.005C0.292,0 0.278,-0.006 0.265,-0.013C0.252,-0.02 0.24,-0.028 0.231,-0.038C0.221,-0.047 0.213,-0.055 0.207,-0.064L0.205,-0.064L0.205,0L0.067,0L0.067,-0.756ZM0.205,-0.243C0.205,-0.206 0.216,-0.177 0.237,-0.154C0.258,-0.131 0.287,-0.12 0.325,-0.12C0.363,-0.12 0.393,-0.131 0.414,-0.154C0.435,-0.177 0.445,-0.206 0.445,-0.243C0.445,-0.28 0.435,-0.309 0.414,-0.332C0.393,-0.355 0.363,-0.366 0.325,-0.366C0.287,-0.366 0.258,-0.355 0.237,-0.332C0.216,-0.309 0.205,-0.28 0.205,-0.243Z" style="fill-rule:nonzero;"/>
                </g>
                <g transform="matrix(286.339,0,0,286.339,1288.62,1114.17)">
                    <path d="M0.055,-0.486L0.205,-0.486L0.205,0L0.055,0L0.055,-0.486ZM0.043,-0.639C0.043,-0.663 0.052,-0.684 0.069,-0.701C0.086,-0.717 0.106,-0.726 0.13,-0.726C0.154,-0.726 0.175,-0.717 0.192,-0.701C0.209,-0.684 0.217,-0.663 0.217,-0.639C0.217,-0.615 0.209,-0.595 0.192,-0.578C0.175,-0.561 0.154,-0.552 0.13,-0.552C0.106,-0.552 0.086,-0.561 0.069,-0.578C0.052,-0.595 0.043,-0.615 0.043,-0.639Z" style="fill-rule:nonzero;"/>
                </g>
                <g transform="matrix(286.339,0,0,286.339,1363.07,1114.17)">
                    <path d="M0.384,-0.366L0.252,-0.366L0.252,-0.204C0.252,-0.191 0.253,-0.179 0.254,-0.168C0.255,-0.157 0.258,-0.147 0.263,-0.139C0.268,-0.131 0.275,-0.125 0.285,-0.121C0.294,-0.116 0.307,-0.114 0.323,-0.114C0.331,-0.114 0.341,-0.115 0.355,-0.117C0.368,-0.118 0.377,-0.122 0.384,-0.128L0.384,-0.003C0.367,0.003 0.35,0.007 0.332,0.009C0.314,0.011 0.296,0.012 0.279,0.012C0.254,0.012 0.23,0.009 0.209,0.004C0.188,-0.001 0.169,-0.01 0.153,-0.022C0.137,-0.033 0.125,-0.048 0.116,-0.067C0.107,-0.086 0.102,-0.108 0.102,-0.135L0.102,-0.366L0.006,-0.366L0.006,-0.486L0.102,-0.486L0.102,-0.63L0.252,-0.63L0.252,-0.486L0.384,-0.486L0.384,-0.366Z" style="fill-rule:nonzero;"/>
                </g>
            </g>
            <g transform="matrix(1.36842,0,0,4.59063,-639.554,-4776.16)">
                <g transform="matrix(106.155,0,0,106.155,669.533,1203.12)">
                    <path d="M0.075,-0.712L0.324,-0.712C0.421,-0.711 0.493,-0.671 0.541,-0.592C0.558,-0.565 0.569,-0.537 0.574,-0.508C0.577,-0.479 0.579,-0.428 0.579,-0.356C0.579,-0.279 0.576,-0.226 0.571,-0.196C0.568,-0.181 0.564,-0.167 0.559,-0.155C0.554,-0.143 0.547,-0.131 0.539,-0.118C0.518,-0.085 0.489,-0.057 0.452,-0.035C0.415,-0.012 0.37,0 0.317,0L0.075,0L0.075,-0.712ZM0.183,-0.102L0.312,-0.102C0.373,-0.102 0.417,-0.123 0.444,-0.164C0.456,-0.179 0.464,-0.199 0.467,-0.222C0.47,-0.245 0.471,-0.289 0.471,-0.352C0.471,-0.414 0.47,-0.458 0.467,-0.485C0.463,-0.512 0.454,-0.533 0.439,-0.55C0.409,-0.591 0.367,-0.611 0.312,-0.61L0.183,-0.61L0.183,-0.102Z" style="fill-rule:nonzero;"/>
                </g>
                <g transform="matrix(106.155,0,0,106.155,736.398,1203.12)">
                    <path d="M0.041,-0.254C0.041,-0.307 0.045,-0.348 0.054,-0.377C0.063,-0.405 0.077,-0.429 0.096,-0.448C0.11,-0.465 0.13,-0.48 0.155,-0.493C0.18,-0.506 0.211,-0.513 0.25,-0.513C0.29,-0.513 0.322,-0.506 0.347,-0.493C0.372,-0.48 0.39,-0.465 0.404,-0.448C0.424,-0.429 0.438,-0.405 0.447,-0.377C0.455,-0.348 0.459,-0.307 0.459,-0.254C0.459,-0.201 0.455,-0.16 0.447,-0.132C0.438,-0.104 0.424,-0.08 0.404,-0.059C0.397,-0.052 0.389,-0.044 0.38,-0.037C0.371,-0.029 0.361,-0.022 0.347,-0.016C0.322,-0.002 0.29,0.005 0.25,0.006C0.211,0.005 0.18,-0.002 0.155,-0.016C0.13,-0.029 0.11,-0.043 0.096,-0.059C0.077,-0.08 0.063,-0.104 0.054,-0.132C0.045,-0.16 0.041,-0.201 0.041,-0.254ZM0.357,-0.253C0.357,-0.289 0.355,-0.315 0.352,-0.332C0.349,-0.348 0.342,-0.362 0.332,-0.374C0.325,-0.385 0.313,-0.394 0.299,-0.401C0.285,-0.408 0.269,-0.411 0.25,-0.411C0.233,-0.411 0.217,-0.408 0.202,-0.401C0.188,-0.394 0.177,-0.385 0.168,-0.374C0.159,-0.362 0.153,-0.348 0.149,-0.332C0.145,-0.315 0.143,-0.289 0.143,-0.254C0.143,-0.219 0.145,-0.193 0.149,-0.177C0.153,-0.16 0.159,-0.146 0.168,-0.133C0.177,-0.123 0.188,-0.114 0.202,-0.107C0.217,-0.1 0.233,-0.096 0.25,-0.096C0.269,-0.096 0.285,-0.1 0.299,-0.107C0.313,-0.114 0.325,-0.123 0.332,-0.133C0.342,-0.146 0.349,-0.16 0.352,-0.177C0.355,-0.193 0.357,-0.218 0.357,-0.253Z" style="fill-rule:nonzero;"/>
                </g>
                <g transform="matrix(106.155,0,0,106.155,789.475,1203.12)">
                    <path d="M0.439,-0.082C0.417,-0.057 0.391,-0.036 0.361,-0.02C0.331,-0.003 0.296,0.005 0.257,0.006C0.197,0.006 0.144,-0.014 0.099,-0.055C0.052,-0.096 0.028,-0.162 0.027,-0.253C0.028,-0.345 0.052,-0.412 0.099,-0.453C0.144,-0.494 0.197,-0.514 0.257,-0.513C0.296,-0.513 0.331,-0.504 0.361,-0.489C0.391,-0.473 0.417,-0.451 0.439,-0.425L0.364,-0.358C0.338,-0.392 0.304,-0.41 0.261,-0.411C0.174,-0.412 0.13,-0.36 0.129,-0.253C0.13,-0.147 0.174,-0.095 0.261,-0.096C0.304,-0.097 0.338,-0.114 0.364,-0.149L0.439,-0.082Z" style="fill-rule:nonzero;"/>
                </g>
                <g transform="matrix(106.155,0,0,106.155,836.592,1203.12)">
                    <path d="M0.066,-0.507L0.168,-0.507L0.168,-0.205C0.168,-0.171 0.178,-0.144 0.197,-0.125C0.216,-0.106 0.24,-0.096 0.269,-0.096C0.298,-0.096 0.322,-0.106 0.341,-0.125C0.36,-0.144 0.369,-0.171 0.369,-0.205L0.369,-0.507L0.471,-0.507L0.471,0L0.369,0L0.369,-0.054L0.367,-0.054C0.334,-0.014 0.29,0.006 0.236,0.006C0.194,0.005 0.156,-0.01 0.122,-0.04C0.085,-0.069 0.067,-0.113 0.066,-0.17L0.066,-0.507Z" style="fill-rule:nonzero;"/>
                </g>
                <g transform="matrix(106.155,0,0,106.155,893.608,1203.12)">
                    <path d="M0.072,-0.507L0.174,-0.507L0.174,-0.453L0.176,-0.453C0.209,-0.493 0.253,-0.513 0.308,-0.513C0.343,-0.513 0.372,-0.507 0.393,-0.495C0.414,-0.482 0.434,-0.466 0.451,-0.447C0.491,-0.492 0.544,-0.514 0.611,-0.513C0.653,-0.513 0.691,-0.498 0.726,-0.469C0.761,-0.439 0.778,-0.395 0.78,-0.337L0.78,0L0.678,0L0.678,-0.302C0.678,-0.337 0.668,-0.364 0.65,-0.383C0.631,-0.402 0.607,-0.411 0.578,-0.411C0.549,-0.411 0.525,-0.402 0.506,-0.383C0.487,-0.364 0.477,-0.337 0.477,-0.302L0.477,0L0.375,0L0.375,-0.302C0.375,-0.337 0.366,-0.364 0.347,-0.383C0.328,-0.402 0.304,-0.411 0.275,-0.411C0.246,-0.411 0.222,-0.402 0.203,-0.383C0.184,-0.364 0.174,-0.337 0.174,-0.302L0.174,0L0.072,0L0.072,-0.507Z" style="fill-rule:nonzero;"/>
                </g>
                <g transform="matrix(106.155,0,0,106.155,984.057,1203.12)">
                    <path d="M0.143,-0.215C0.143,-0.174 0.155,-0.143 0.178,-0.122C0.2,-0.101 0.229,-0.09 0.264,-0.09C0.306,-0.09 0.342,-0.106 0.375,-0.139L0.449,-0.076C0.397,-0.021 0.336,0.007 0.266,0.006C0.239,0.006 0.213,0.002 0.188,-0.006C0.175,-0.01 0.163,-0.016 0.151,-0.023C0.138,-0.029 0.126,-0.037 0.115,-0.046C0.094,-0.065 0.076,-0.091 0.063,-0.125C0.048,-0.158 0.041,-0.2 0.041,-0.252C0.041,-0.302 0.047,-0.344 0.06,-0.377C0.073,-0.411 0.089,-0.438 0.109,-0.457C0.129,-0.477 0.152,-0.491 0.177,-0.5C0.201,-0.509 0.226,-0.513 0.25,-0.513C0.308,-0.513 0.357,-0.493 0.397,-0.456C0.438,-0.418 0.458,-0.366 0.459,-0.299L0.459,-0.215L0.143,-0.215ZM0.357,-0.299C0.356,-0.338 0.345,-0.368 0.325,-0.388C0.306,-0.407 0.281,-0.417 0.25,-0.417C0.219,-0.417 0.194,-0.407 0.175,-0.388C0.156,-0.368 0.145,-0.338 0.143,-0.299L0.357,-0.299Z" style="fill-rule:nonzero;"/>
                </g>
                <g transform="matrix(106.155,0,0,106.155,1037.13,1203.12)">
                    <path d="M0.066,-0.507L0.168,-0.507L0.168,-0.453L0.17,-0.453C0.203,-0.493 0.247,-0.513 0.302,-0.513C0.344,-0.513 0.382,-0.498 0.417,-0.469C0.451,-0.439 0.47,-0.395 0.471,-0.337L0.471,0L0.369,0L0.369,-0.302C0.369,-0.337 0.36,-0.364 0.341,-0.383C0.322,-0.402 0.298,-0.411 0.269,-0.411C0.24,-0.411 0.216,-0.402 0.197,-0.383C0.178,-0.364 0.168,-0.337 0.168,-0.302L0.168,0L0.066,0L0.066,-0.507Z" style="fill-rule:nonzero;"/>
                </g>
                <g transform="matrix(106.155,0,0,106.155,1094.15,1203.12)">
                    <path d="M0.072,-0.661L0.174,-0.661L0.174,-0.507L0.248,-0.507L0.248,-0.429L0.174,-0.429L0.174,-0.134C0.173,-0.108 0.185,-0.096 0.21,-0.096L0.248,-0.096L0.248,0L0.195,0C0.159,0 0.13,-0.011 0.107,-0.033C0.083,-0.054 0.072,-0.085 0.072,-0.125L0.072,-0.429L0.021,-0.429L0.021,-0.507L0.072,-0.507L0.072,-0.661Z" style="fill-rule:nonzero;"/>
                </g>
                <g transform="matrix(106.155,0,0,106.155,1123.64,1203.12)">
                    <path d="M0.332,-0.045L0.33,-0.045C0.321,-0.028 0.306,-0.015 0.286,-0.007C0.267,0.002 0.24,0.006 0.205,0.006C0.148,0.005 0.105,-0.01 0.074,-0.039C0.042,-0.068 0.026,-0.104 0.026,-0.149C0.026,-0.192 0.04,-0.227 0.068,-0.255C0.096,-0.284 0.137,-0.298 0.191,-0.299L0.332,-0.299L0.332,-0.352C0.333,-0.397 0.298,-0.418 0.228,-0.417C0.203,-0.417 0.183,-0.414 0.168,-0.409C0.153,-0.403 0.141,-0.393 0.132,-0.378L0.052,-0.439C0.09,-0.49 0.148,-0.514 0.223,-0.513C0.287,-0.514 0.338,-0.502 0.376,-0.477C0.414,-0.452 0.433,-0.408 0.434,-0.346L0.434,0L0.332,0L0.332,-0.045ZM0.332,-0.215L0.21,-0.215C0.151,-0.214 0.121,-0.193 0.122,-0.154C0.122,-0.137 0.13,-0.122 0.145,-0.11C0.16,-0.097 0.184,-0.09 0.218,-0.09C0.26,-0.089 0.291,-0.094 0.308,-0.105C0.324,-0.116 0.332,-0.14 0.332,-0.178L0.332,-0.215Z" style="fill-rule:nonzero;"/>
                </g>
                <g transform="matrix(106.155,0,0,106.155,1176.72,1203.12)">
                    <path d="M0.072,-0.661L0.174,-0.661L0.174,-0.507L0.248,-0.507L0.248,-0.429L0.174,-0.429L0.174,-0.134C0.173,-0.108 0.185,-0.096 0.21,-0.096L0.248,-0.096L0.248,0L0.195,0C0.159,0 0.13,-0.011 0.107,-0.033C0.083,-0.054 0.072,-0.085 0.072,-0.125L0.072,-0.429L0.021,-0.429L0.021,-0.507L0.072,-0.507L0.072,-0.661Z" style="fill-rule:nonzero;"/>
                </g>
                <g transform="matrix(106.155,0,0,106.155,1206.21,1203.12)">
                    <path d="M0.069,-0.507L0.171,-0.507L0.171,0L0.069,0L0.069,-0.507ZM0.069,-0.712L0.171,-0.712L0.171,-0.61L0.069,-0.61L0.069,-0.712Z" style="fill-rule:nonzero;"/>
                </g>
                <g transform="matrix(106.155,0,0,106.155,1231.66,1203.12)">
                    <path d="M0.041,-0.254C0.041,-0.307 0.045,-0.348 0.054,-0.377C0.063,-0.405 0.077,-0.429 0.096,-0.448C0.11,-0.465 0.13,-0.48 0.155,-0.493C0.18,-0.506 0.211,-0.513 0.25,-0.513C0.29,-0.513 0.322,-0.506 0.347,-0.493C0.372,-0.48 0.39,-0.465 0.404,-0.448C0.424,-0.429 0.438,-0.405 0.447,-0.377C0.455,-0.348 0.459,-0.307 0.459,-0.254C0.459,-0.201 0.455,-0.16 0.447,-0.132C0.438,-0.104 0.424,-0.08 0.404,-0.059C0.397,-0.052 0.389,-0.044 0.38,-0.037C0.371,-0.029 0.361,-0.022 0.347,-0.016C0.322,-0.002 0.29,0.005 0.25,0.006C0.211,0.005 0.18,-0.002 0.155,-0.016C0.13,-0.029 0.11,-0.043 0.096,-0.059C0.077,-0.08 0.063,-0.104 0.054,-0.132C0.045,-0.16 0.041,-0.201 0.041,-0.254ZM0.357,-0.253C0.357,-0.289 0.355,-0.315 0.352,-0.332C0.349,-0.348 0.342,-0.362 0.332,-0.374C0.325,-0.385 0.313,-0.394 0.299,-0.401C0.285,-0.408 0.269,-0.411 0.25,-0.411C0.233,-0.411 0.217,-0.408 0.202,-0.401C0.188,-0.394 0.177,-0.385 0.168,-0.374C0.159,-0.362 0.153,-0.348 0.149,-0.332C0.145,-0.315 0.143,-0.289 0.143,-0.254C0.143,-0.219 0.145,-0.193 0.149,-0.177C0.153,-0.16 0.159,-0.146 0.168,-0.133C0.177,-0.123 0.188,-0.114 0.202,-0.107C0.217,-0.1 0.233,-0.096 0.25,-0.096C0.269,-0.096 0.285,-0.1 0.299,-0.107C0.313,-0.114 0.325,-0.123 0.332,-0.133C0.342,-0.146 0.349,-0.16 0.352,-0.177C0.355,-0.193 0.357,-0.218 0.357,-0.253Z" style="fill-rule:nonzero;"/>
                </g>
                <g transform="matrix(106.155,0,0,106.155,1284.74,1203.12)">
                    <path d="M0.066,-0.507L0.168,-0.507L0.168,-0.453L0.17,-0.453C0.203,-0.493 0.247,-0.513 0.302,-0.513C0.344,-0.513 0.382,-0.498 0.417,-0.469C0.451,-0.439 0.47,-0.395 0.471,-0.337L0.471,0L0.369,0L0.369,-0.302C0.369,-0.337 0.36,-0.364 0.341,-0.383C0.322,-0.402 0.298,-0.411 0.269,-0.411C0.24,-0.411 0.216,-0.402 0.197,-0.383C0.178,-0.364 0.168,-0.337 0.168,-0.302L0.168,0L0.066,0L0.066,-0.507Z" style="fill-rule:nonzero;"/>
                </g>
            </g>
        </g>
    </g>
</svg>
